<?xml version="1.0" ?><svg viewBox="0 0 64 64" xmlns="http://www.w3.org/2000/svg"><defs><style>.cls-1,.cls-2{fill:none;stroke:#000;stroke-linejoin:round;stroke-width:2px;}.cls-1{stroke-linecap:round;}</style></defs><title/><g data-name="Layer 27" id="Layer_27"><polygon class="cls-1" points="9.57 46.18 1.1 37.75 18.27 3.56 34.95 37.75 26.65 46.18 9.57 46.18"/><line class="cls-1" x1="18.02" x2="18.02" y1="46.18" y2="32.43"/><circle class="cls-1" cx="18.02" cy="30.29" r="2.14"/><polyline class="cls-2" points="9.62 64 9.62 49.82 26.91 49.82 26.91 64"/><polyline class="cls-2" points="21.34 8.96 62.75 8.96 62.75 64"/><line class="cls-1" x1="51.36" x2="58.14" y1="13.96" y2="13.96"/><line class="cls-1" x1="29.26" x2="47.08" y1="13.96" y2="13.96"/><line class="cls-1" x1="39.79" x2="33.39" y1="22.79" y2="22.79"/><line class="cls-1" x1="58.14" x2="43.92" y1="22.79" y2="22.79"/><line class="cls-1" x1="58.14" x2="37.78" y1="31.21" y2="31.21"/><line class="cls-1" x1="51.03" x2="39.79" y1="39.64" y2="39.64"/><line class="cls-1" x1="58.14" x2="54.75" y1="39.64" y2="39.64"/><line class="cls-1" x1="54.75" x2="33.39" y1="48.07" y2="48.07"/></g></svg>