<?xml version="1.0" ?><svg viewBox="0 0 64 64" xmlns="http://www.w3.org/2000/svg"><path d="M56.258 31.303c-.398 0-.57.793-.57.793s5.46 7.077 5.803 7.19c.342.113.797-.396.797-.396s-5.85-7.587-6.03-7.587zM30.662 55.308c-.284.17-7.565 6.284-7.792 6.51-.228.227.626.907.853.907.228 0 7.565-6.737 7.565-6.907 0-.17-.43-.626-.626-.51zm-11.547-40.82c.228 0 1.82-7.587 1.82-7.757s-.74-.34-.74-.34c-.17.284-2.388 7.19-2.445 7.757-.057.567 1.137.34 1.365.34zm31.74 14.776c-.115-.34 9.498-13.192 9.498-13.192s-.853-2.83-1.137-3.114c-.284-.283-17.576 3.17-17.576 3.17S29.695 1.467 28.5 1.07c-1.194-.395-2.275 1.02-2.787 1.416C25.2 2.88 19.23 22.414 19 22.81c-.227.395-18.47 9.127-18.826 9.17-.455.058.114 1.7.228 1.87.114.17 16.495 6.85 16.666 6.963s-.796 22.364-.74 22.703c.057.34 1.48.566 1.706.453.228-.114 18.43-18.515 18.827-18.57.4-.058 24.06 6.793 24.346 6.736.285-.056 2.446-1.585 2.787-2.49.342-.905-13.025-20.042-13.14-20.382zm8.588 19.533l-2.673-.906-1.024-4.472-1.422-.396s1.536 4.53 1.08 4.53c-.454 0-2.33-.228-2.445-.567-.115-.34-1.196-4.53-1.423-4.643-.227-.113-1.195-.113-1.195-.113s1.08 4.302.853 4.302c-.227 0-1.25-.057-1.308-.283-.057-.227-1.138-4.813-1.308-4.813-.172 0-1.48-.283-1.48 0s.796 4.473.626 4.473-11.547-3.057-11.945-3.057c-.397 0-16.722 16.76-16.722 16.475s.74-19.59.512-20.156c-.227-.566-15.47-6.568-15.585-6.794-.284-.566 17.348-7.417 17.52-7.926.17-.51 6.426-20.1 6.768-19.703.34.395 11.32 13.644 11.888 13.757.57.113 16.44-3.454 16.78-3 .342.452-9.44 13.417-9.327 13.7.114.283 12.4 17.89 12.457 18.287.056.397-.627 1.303-.627 1.303zM27.647 11.374c-.114.17-2.673 8.493-2.616 8.832.058.34 1.707.396 1.707.396s2.39-8.606 2.39-8.776c0-.17-1.34-.663-1.48-.452z"/></svg>